<svg xmlns="http://www.w3.org/2000/svg" viewBox="0 0 673.06 397.72"><g id="Calque_2" data-name="Calque 2"><g id="Calque_1-2" data-name="Calque 1"><path d="M149.25,278.07s21.48-19.78,50.72-103.5,16.34-113.51-12-36.69-42.73,177.29-35.1,177.29,16.3-50.37,34.64-51.46,13.54,11.47,14.63,25.64,2,29.42,19.43,8.35,11.83-28.14,22-40.68c2.63-3.25-.82,18.83-12.34,35.78-6.18,9.08-22,28.72-40,22.7-11.85-4-9.26-31.6-8.35-39.59s-10.54,12-14.53,24.15-12.25,33.81-24.16,29.61c-12.09-4.27-12-34.49-4.5-74.8s21.76-100.46,43.73-137S214.13,82.5,221,91.58s.91,46.49-15.44,86.81-36.5,86.44-59.38,115.32"/><path d="M292.75,249.33c5.32.28,13-24.23-4.39-29.38s-34,9.35-45,31.48-14.88,55.15,5,54.39c12.4-1.15,18.32-15.46,18.32-15.46S272.53,302.57,288,299s26.72-32.06,34.92-54.2-8.58,3.44-15.83,21.18-18.33,27.1-20.81,26.34-4.19-5.54-2.28-21.18.76-18.51-8-16S265.08,261,264.7,277.19c-.2,8.57-7.63,22.9-11.26,21.57-2.56-.95-3.24-20.23,4.77-43.51,9-26.17,14.14-32.42,25.57-31.87,11.84.57,9.74,13.93,8.59,17.56s-3.24,8.2.38,8.39"/><path d="M390.92,269c-21.2,69.57-83.86,79.27-83.86,12.91s32-144.44,32-144.44c.63-2.92,6.41-4.5,14.33-11.37s12.92-11.22,9.21,1c-3.5,11.51-30.84,89.18-34.17,123.18s-4.33,74,17.67,68.34,33.66-36.34,34.33-45.34,12.72-11.48,10.53-4.24"/><path d="M438.21,204.9c-3.16,7.5-27.45,52-52.5,57.46-13.64,3-10.81-19.84-10.81-19.84s16.77-7.43,19.82-25.82c3.53-21.27-6.76-27.84-20.47-16.73s-21.38,29.3-21.22,47.56,20.83,35.13,46.58,17.41c8.38-5.77,18.86-18.58,23.94-26.91,23-37.68,14.66-33.13,14.66-33.13m-52.86-3.52c7.51-2.83,6.1,28.52-10.45,34.94,0,0,2.94-32.11,10.45-34.94"/><path d="M633.37,141.21c-3.15,7.51-30.66,62.34-55.72,67.83-13.63,3-11.76-21.51-11.76-21.51s16.77-7.42,19.82-25.82c3.52-21.27-6.76-27.83-20.48-16.73S543.85,174.29,544,192.54s20.84,35.14,46.58,17.41c8.39-5.76,18.86-18.58,23.95-26.9,23-37.69,18.83-41.84,18.83-41.84m-57,5.18c7.51-2.82,6.09,28.52-10.45,34.94,0,0,2.94-32.11,10.45-34.94"/><path d="M424.22,236.53C445.55,205,475.89,146.2,488.89,104s11-61.5-12.67-45c-19,13.25-42.83,57-54.33,118s-5.67,81.34,14,89.5,49.66-39.33,58.16-52.5,10.34-28,.67-12c-44.72,74-56.17,64.67-58.5,35.17s15.83-128.33,37.17-161.83,19-8.34,3,43.66-51.5,108.84-51.5,108.84Z"/><path d="M562.13,187.36a8.26,8.26,0,0,1-2.66-2.43c-37.77,59.13-47.9,49.16-50.08,21.6-.38-4.76.08-11.94,1.21-20.75,23-41,52.95-102.45,62.95-134.91,13-42.17,11-61.5-12.66-45-19,13.25-54.34,79.5-65.84,140.5s-5.66,81.33,14,89.5c17.74,7.36,43.88-30.55,55.07-47.72a7.73,7.73,0,0,1-2-.79M558.05,22.2c21.34-33.5,19-8.33,3,43.67-9.45,30.74-31.49,73.58-47.93,103.49,8.43-48.16,29-122.14,44.93-147.16"/><path d="M644,171l-.08-.26c-3.4-10-6.39-18.73-8.52-26.07a100.83,100.83,0,0,0,6-17.47c4.5-19.83-10.34-17.17-18.67-6s-10,18.67-3.83,43c.36,1.44.76,2.88,1.17,4.3l-13.84,26.2s7-9.69,14.87-22.8c1.71,5.5,3.62,10.8,5.23,15.76-11.08,11.07-20.6,22.53-20.6,31,0,16.67,22.83,3.67,31.5-3,7.88-6.06,14.53-16.06,8.78-38m-12-56.49c3.63-2.86,3.27,7.13-.08,18.33-2.45-9.6-2.88-16,.08-18.33m-12.33,98.33c-17.17,9.67-10.33-6-6-11.5,1.26-1.6,6.28-6.43,12.82-12.83,2.67,10.58,2.4,19.14-6.82,24.33"/><path d="M255.58,397.33V363.14h10.84a11.12,11.12,0,0,1,7.78,2.65,9.07,9.07,0,0,1,2.91,7.07,9.44,9.44,0,0,1-1.49,5.29,8.58,8.58,0,0,1-4.08,3.33,20.59,20.59,0,0,1-7.43,1h-3.62v14.81Zm10-29.84h-5.06v10.69h5.36a6.75,6.75,0,0,0,4.6-1.42,5.06,5.06,0,0,0,1.6-4c0-3.49-2.16-5.25-6.5-5.25"/><path d="M299.22,363h3.44L318,397.33h-5l-4.56-10.11H293.84l-4.27,10.11h-5Zm7.17,19.87L300.9,370.5l-5.12,12.36Z"/><path d="M332.8,397.33V363.2h8.56a12.38,12.38,0,0,1,8.22,2.55,8.63,8.63,0,0,1,3,6.95,8.54,8.54,0,0,1-5.77,8.4,15.17,15.17,0,0,1,3.21,2.94,59.75,59.75,0,0,1,4.4,6.47c1.19,1.94,2.14,3.39,2.85,4.37l1.82,2.45h-5.82l-1.49-2.25q-.07-.12-.3-.42l-.95-1.34-1.51-2.49-1.63-2.67a26,26,0,0,0-2.78-3.35,10.88,10.88,0,0,0-2.27-1.79,7.78,7.78,0,0,0-3.41-.55h-1.29v14.86Zm6.36-30h-1.48v10.79h1.88a13.9,13.9,0,0,0,5.09-.64,4.81,4.81,0,0,0,2.14-1.92,5.52,5.52,0,0,0,.78-2.92,5.21,5.21,0,0,0-.86-2.92,4.53,4.53,0,0,0-2.41-1.85,17.6,17.6,0,0,0-5.14-.54"/><rect x="373.9" y="363.2" width="4.89" height="34.13"/><path d="M405.78,383l-3.72-2.27a17,17,0,0,1-5-4.19,8,8,0,0,1-1.48-4.76,8.37,8.37,0,0,1,2.81-6.54,10.48,10.48,0,0,1,7.26-2.52,13.76,13.76,0,0,1,7.85,2.4v5.55a11.34,11.34,0,0,0-7.95-3.55,6.57,6.57,0,0,0-3.93,1.11,3.36,3.36,0,0,0-1.54,2.83,4.39,4.39,0,0,0,1.14,2.88,14.44,14.44,0,0,0,3.64,2.81l3.74,2.2q6.24,3.74,6.25,9.5a8.73,8.73,0,0,1-2.75,6.68,10.08,10.08,0,0,1-7.15,2.56,15,15,0,0,1-9.21-3.11V388.4q4,5,9.16,5a5.74,5.74,0,0,0,3.82-1.28,4,4,0,0,0,1.53-3.2q0-3.12-4.49-5.91"/><path d="M606.22,194.7s28.93-40,35.17-67.5c4.5-19.83-10.34-17.17-18.67-6s-10,18.67-3.83,43,20,45.67,2.83,55.33-10.33-6-6-11.5,52.33-50.47,55.83-63.83c3.14-11.93.5-11.75-.16-9.5,0,0-2.5,11-15.84,25.17S605.72,202,605.72,218.7s22.84,3.67,31.5-3,15.85-18.09,6.68-45-15.35-45.21-9.85-49.54,1.84,20.83-7.5,35"/><path d="M157.49,267.29c-35.85,46.3-65.77,77.13-99.75,79.41-13.67.92-24-6.27-29.84-20.79C21.9,311,21,289.69,25.4,264.2c10.31-60,47.5-134.25,80.27-136.46,10.22-.68,15.13,6,17.45,11.8,3,7.38,3.59,17.92,1.7,28.94a169.12,169.12,0,0,1-4.26,16.73,216.45,216.45,0,0,0-5.82,23.38c-.7,4.07-1.2,9.77.41,13.76a6.77,6.77,0,0,0,7.23,4.51c11-.74,19.18-19.86,22.38-38.49,3-17.32,2.1-32.52-2.51-44-6-14.87-18-22.49-33.68-21.43-21.81,1.47-45,18.28-65.22,47.35-19.33,27.75-33.91,64-40,99.6-5.74,33.46-3.74,55.82,3.55,73.9,6.86,17,19.23,25.43,35.77,24.32h.08l1.09-.05c7-.48,56.15-.93,113.75-92.7"/><path d="M463.33,137.93c-10.51,10.58-35.52,17-101.51,19.23s-72.83,20-75.3,25.21c-1.84,3.88,0,5,3.41,1.36,11-12.67,19.1-14.33,90.69-19.08s81.27-19.06,83.45-25.39c.57-1.66.31-2.33-.74-1.33"/></g></g></svg>