<svg xmlns="http://www.w3.org/2000/svg" viewBox="0 0 64.56 69.3"><defs><style>.cls-1{fill:#feffff;}.cls-2{fill:#002fa5;}.cls-3{fill:#012fa5;}.cls-4{fill:#1b31a0;}.cls-5{fill:#0130a6;}.cls-6{fill:#0230a6;}.cls-7{fill:#869dd5;}.cls-8{fill:#8ba1d6;}.cls-9{fill:#849bd4;}</style></defs><g id="Calque_2" data-name="Calque 2"><g id="Calque_1-2" data-name="Calque 1"><path d="M62.34,12.27a.82.82,0,0,0-.32-.61l-.3-.22-.26.05L41.91,10c0-1.88-.35-5.14-2.45-7.47A8,8,0,0,0,33.19,0a8.41,8.41,0,0,0-6.61,2.57c-.15.16-.29.34-.42.51A22.19,22.19,0,0,0,20,7.6a8.59,8.59,0,0,0-.59.64l-5.94-.46L11.23,9.54l-8.9,1v.26L0,60.91,47.4,69.2l.06.1.19,0,.12,0,.11,0,.11-.11,15.81-4.4a.62.62,0,0,0,.22-.1.73.73,0,0,0,.25-.15l.29-.29Zm-1.6,51.78L50.39,66.93l4.52-4.21ZM17.91,18l.15.2,1.21-.88-.15-.2a5.48,5.48,0,0,1-.75-3.77l15.32,1.2c0,.78,0,1.32,0,1.4.08,1.08.73,3.13,2.67,3.13h.25v-1.5h-.25c-1,0-1.15-1.58-1.17-1.71s0-.53,0-1.2L48.9,15.73l-2,51.86L1.56,59.66,3.77,12.2l13.13,1A7.19,7.19,0,0,0,17.91,18Zm.91-6.21a9.1,9.1,0,0,1,1.19-2l14.1,1.09A16.71,16.71,0,0,0,33.79,13Zm-8.25-.66L11.82,11l2.07-1.66,4.38.34a9.58,9.58,0,0,0-1,2ZM50.4,15.56l2.87-1.09.16-.05.51,47.16-5.5,5.11Zm3.87-3-.07,0-.6.2-.19.08v0l-3.85,1.46L35.29,13.12A16,16,0,0,1,35.63,11L54.8,12.48ZM29.88,3.21Zm6.25,6.32a1.8,1.8,0,0,1,.17-.31,4.65,4.65,0,0,0,.24-4.39A4.83,4.83,0,0,0,33,2.06a11.69,11.69,0,0,0-2.69-.14,9.27,9.27,0,0,1,2.9-.42,6.66,6.66,0,0,1,5.16,2c1.71,1.9,2,4.69,2,6.35ZM29.9,3.46h0a10.49,10.49,0,0,1,2.81.08,3.3,3.3,0,0,1,2.45,1.91A3.19,3.19,0,0,1,35,8.5a5.15,5.15,0,0,0-.44.91l-8.6-.66a8.8,8.8,0,0,1,1.22-4.46A9.84,9.84,0,0,1,29.9,3.46ZM63,63,55.44,61.3,54.92,14l.55-.11,5.4-.81ZM21.28,8.39A22.64,22.64,0,0,1,25,5.47a11.3,11.3,0,0,0-.52,3.16Z"/><path class="cls-1" d="M21.05,47.64a1.79,1.79,0,0,0-.51-.11c-.09,0-.09,0-.11.07,0,.26-.09.54-.15.81s-.09.52-.13.79,0,.13.13.17h0c.09,0,.09,0,.11-.07l.09-.55c0-.11,0-.12.14-.1a1,1,0,0,0,.3,0,.5.5,0,0,0,.44-.48A.45.45,0,0,0,21.05,47.64Zm-.07.79a.72.72,0,0,1-.41,0s0,0,0-.07.07-.36.1-.54,0-.07.08-.06h.07a.77.77,0,0,1,.27.11.26.26,0,0,1,.11.28A.28.28,0,0,1,21,48.43Z"/><path class="cls-1" d="M22.93,47.83c-.42.61-.82,1.2-1.23,1.78l.22,0a.08.08,0,0,0,.1,0l.21-.29a.09.09,0,0,1,.11-.06l.66.13c.05,0,.07,0,.1.08a3.59,3.59,0,0,0,.08.35s0,.07.06.08l.24,0C23.3,49.23,23.12,48.54,22.93,47.83Zm-.56,1.23c.15-.24.3-.47.47-.72.08.29.14.55.21.84Z"/><path class="cls-1" d="M25.21,49.4a.54.54,0,0,0,.09-1c-.14-.05-.28-.06-.43-.1s-.18,0-.2.15c-.09.5-.18,1-.26,1.49,0,.18,0,.18.14.2s.08,0,.09-.06.07-.38.11-.57c0,0,0-.1,0-.1s.06.06.08.09c.1.23.21.45.32.69,0,0,0,.07.08.08l.28,0c-.16-.29-.3-.57-.43-.87Zm-.38-.21s-.06,0,0-.07l.09-.56a.06.06,0,0,1,.08-.05H25a.57.57,0,0,1,.25.11.28.28,0,0,1,.12.33.28.28,0,0,1-.24.24A.92.92,0,0,1,24.83,49.19Z"/><path class="cls-1" d="M27,48.82c-.08.52-.18,1-.27,1.56,0,.13,0,.13-.14.1s-.14,0-.11-.18l.14-.78c0-.27.09-.54.13-.81,0-.09,0-.09.11-.08S27,48.64,27,48.82Z"/><path class="cls-1" d="M29.06,49.22c0,.05,0,.09,0,.1l-.07,0c-.06,0-.1,0-.14,0a.3.3,0,0,0-.42-.1.19.19,0,0,0-.07.3.45.45,0,0,0,.16.12,1.71,1.71,0,0,1,.27.2.53.53,0,0,1,.13.73.61.61,0,0,1-.72.25.59.59,0,0,1-.39-.54c0-.06,0-.09.08-.08H28a.26.26,0,0,1,0,.12.33.33,0,0,0,.65-.08A.21.21,0,0,0,28.6,50a.92.92,0,0,0-.21-.17.9.9,0,0,1-.27-.21.44.44,0,0,1,0-.6A.58.58,0,0,1,29.06,49.22Z"/><path class="cls-1" d="M44.27,38.81l0,0a2.92,2.92,0,0,1-.65.83,6.53,6.53,0,0,1-1.16.85h0c-.07-.45-.15-.9-.21-1.35a.36.36,0,0,1,.06-.23,4,4,0,0,0,.45-.87,1.14,1.14,0,0,0,.1-.45.32.32,0,0,0-.31-.33.68.68,0,0,0-.44.12,1.81,1.81,0,0,0-1,1.49,7.93,7.93,0,0,0,0,1.09.19.19,0,0,1-.06.18c-.26.27-.52.55-.79.81a7,7,0,0,1-1.08.79,1.85,1.85,0,0,1-.69.21.45.45,0,0,1-.53-.36,1,1,0,0,1,0-.17,2.08,2.08,0,0,1,0-.66.16.16,0,0,1,.1-.11,2,2,0,0,0,1.38-1.76,1.07,1.07,0,0,0,0-.4A.47.47,0,0,0,39,38.2a1.16,1.16,0,0,0-.57.18,2.52,2.52,0,0,0-.8.64,3.5,3.5,0,0,0-.74,1.33,1.89,1.89,0,0,0-.07,1,.11.11,0,0,1,0,.1,6.08,6.08,0,0,1-1.06.85,1.5,1.5,0,0,1-.41.18.39.39,0,0,1-.48-.26,1.26,1.26,0,0,1-.08-.43,4.63,4.63,0,0,1,.22-1.52,1.31,1.31,0,0,1,.21-.36,62.44,62.44,0,0,0,3.77-5.19A14,14,0,0,0,40.33,32a3.8,3.8,0,0,0,.22-.8.87.87,0,0,0,0-.36.34.34,0,0,0-.32-.25,1,1,0,0,0-.3,0,2,2,0,0,0-.71.32,6.15,6.15,0,0,0-1,.86,18.26,18.26,0,0,0-2.11,2.83,17.23,17.23,0,0,0-1.5,3A18.91,18.91,0,0,0,34,39.5a8.88,8.88,0,0,0-.28,1.32.8.8,0,0,1-.05.38,2.27,2.27,0,0,1-.26.28,12.5,12.5,0,0,1-1.47,1.44,3.6,3.6,0,0,1-.57.39,1.11,1.11,0,0,1-.34.14.39.39,0,0,1-.47-.26,1,1,0,0,1-.07-.29,3.55,3.55,0,0,1,0-.92c0-.26.1-.51.16-.77a.55.55,0,0,1,.14-.26A36.06,36.06,0,0,0,33.68,37a16.07,16.07,0,0,0,1.5-2.88,3.67,3.67,0,0,0,.23-.8,1.1,1.1,0,0,0,0-.36.37.37,0,0,0-.4-.33.86.86,0,0,0-.27,0,2.45,2.45,0,0,0-.66.29,4.17,4.17,0,0,0-.79.64,8.87,8.87,0,0,0-1.22,1.51,14.92,14.92,0,0,0-1.24,2.2c0,.08-.06.1-.14.1a21.17,21.17,0,0,1-2.41-.19c-.51-.06-1-.14-1.52-.21,0,0-.07,0-.09,0a.36.36,0,0,1,0-.11l.31-.58c.18-.33.37-.65.53-1,0-.07.05-.13.07-.2s0-.11-.11-.08a.64.64,0,0,0-.2.08,7.27,7.27,0,0,1-1,.53.35.35,0,0,0-.2.18c-.2.34-.4.66-.58,1a.16.16,0,0,1-.17.1,5.27,5.27,0,0,0-.79,0,3.44,3.44,0,0,0-1.12.26,1.37,1.37,0,0,0-.59.5.35.35,0,0,0-.06.09.14.14,0,0,0,0,.11s.07,0,.1,0a.66.66,0,0,0,.17-.12,1.71,1.71,0,0,1,.88-.39,5.9,5.9,0,0,1,1.26,0,.28.28,0,0,1,0,.11c-.41.78-.78,1.58-1.12,2.39s-.54,1.44-.75,2.18a1,1,0,0,1-.11.35,3.63,3.63,0,0,1-.93,1.06,1.35,1.35,0,0,1-.31.19c-.17.07-.25,0-.27-.16v-.17a3,3,0,0,1,.06-.32,6.86,6.86,0,0,1,.2-.78,1.4,1.4,0,0,0,.07-.4c0-.18-.07-.26-.25-.27l-.36,0a.56.56,0,0,0-.44.36,2.54,2.54,0,0,0-.19.61,2,2,0,0,1-.52,1,.88.88,0,0,1-.15.12.16.16,0,0,1-.16,0c-.05,0-.05-.1-.05-.14a2.45,2.45,0,0,1,0-.27,4.46,4.46,0,0,1,.26-1A7.84,7.84,0,0,1,21,40.75a2.9,2.9,0,0,1,.4-.54.86.86,0,0,1,.87-.26.51.51,0,0,1,.43.55,1.08,1.08,0,0,1-.15.52c0,.08-.09.17-.12.25a.14.14,0,0,0,0,.16.13.13,0,0,0,.16,0,.61.61,0,0,0,.16-.16,1.45,1.45,0,0,0,.23-.54.85.85,0,0,0-.61-1,1.54,1.54,0,0,0-.95,0,2.69,2.69,0,0,0-.92.55A5,5,0,0,0,19.26,42a3.39,3.39,0,0,1-.68,1,5.06,5.06,0,0,1-.76.64.8.8,0,0,1-.36.17.2.2,0,0,1-.26-.13.69.69,0,0,1,0-.25,6,6,0,0,1,.1-1.11,2.8,2.8,0,0,0,.07-.59.45.45,0,0,0-.31-.44.89.89,0,0,0-1,.12,3,3,0,0,0-.46.48c-.23.3-.42.61-.62.93s-.24.38-.38.56a.82.82,0,0,1-.21.25c-.05,0-.09.06-.14,0s0-.08,0-.13a1,1,0,0,1,0-.3,10.41,10.41,0,0,1,.26-1.07A.52.52,0,0,1,14.6,42c.34-.36.68-.73,1-1.13a39.8,39.8,0,0,0,3.2-4.71,10.91,10.91,0,0,0,1.28-2.9,3,3,0,0,0,.12-.74A.79.79,0,0,0,20,32a.45.45,0,0,0-.49-.17,1.26,1.26,0,0,0-.31.14,3.26,3.26,0,0,0-.55.43,11.82,11.82,0,0,0-1.6,1.86,24.82,24.82,0,0,0-1.69,3.07c-.45,1-.86,2-1.23,3a15.73,15.73,0,0,0-.66,2.15.22.22,0,0,1-.09.12c-.24.19-.49.4-.74.58a10.46,10.46,0,0,1-1.59,1,4.37,4.37,0,0,1-2.24.48,1.51,1.51,0,0,1-1.19-.72,2.34,2.34,0,0,1-.28-.71,4.66,4.66,0,0,1,0-1.58A9.2,9.2,0,0,1,8,39.25a16.54,16.54,0,0,1,2-3.54A10.77,10.77,0,0,1,11.52,34a4.21,4.21,0,0,1,1.09-.72,1.85,1.85,0,0,1,.7-.17.93.93,0,0,1,1,.69,1.77,1.77,0,0,1,0,.2,2.1,2.1,0,0,1,0,.75,4.63,4.63,0,0,1-.47,1.4,13,13,0,0,0-.67,1.47,1.79,1.79,0,0,0-.12.61.43.43,0,0,0,.54.44.78.78,0,0,0,.24-.09,1.93,1.93,0,0,0,.28-.22,2.51,2.51,0,0,0,.38-.48A5.87,5.87,0,0,0,15.38,35a2.58,2.58,0,0,0-.23-1.19,1.69,1.69,0,0,0-1.1-.92,2.64,2.64,0,0,0-1.22,0,4.69,4.69,0,0,0-1.59.65,9.42,9.42,0,0,0-2,1.72A14.24,14.24,0,0,0,6.9,39,11.91,11.91,0,0,0,6,41.87a6.36,6.36,0,0,0-.07,1.38,3.61,3.61,0,0,0,.27,1.21,1.75,1.75,0,0,0,1.44,1.1,4.32,4.32,0,0,0,1.68-.06,7.44,7.44,0,0,0,2.16-.9,12.64,12.64,0,0,0,1.75-1.28.11.11,0,0,1,.11,0,1.14,1.14,0,0,0,0,.26,1.66,1.66,0,0,0,.1.61.51.51,0,0,0,.47.32.67.67,0,0,0,.38-.13,1.88,1.88,0,0,0,.45-.44,6.66,6.66,0,0,0,.52-.85,5.68,5.68,0,0,1,.79-1.1.69.69,0,0,1,.18-.16s0-.05.07,0,0,0,0,.08,0,0,0,.05A5.46,5.46,0,0,0,16,43.15a1.9,1.9,0,0,0,.06.63.69.69,0,0,0,.26.3,1.16,1.16,0,0,0,.55.15,2,2,0,0,0,1-.28,4.51,4.51,0,0,0,1-.84s0-.08.09-.07a1.26,1.26,0,0,0,0,.61.6.6,0,0,0,.44.42A.88.88,0,0,0,20.1,44a1.43,1.43,0,0,0,.51-.43s.05-.08.09-.09,0,0,0,0,0,0,0,0a1,1,0,0,0,.84.55,1.06,1.06,0,0,0,.79-.22,2.6,2.6,0,0,0,.52-.47s0-.06.08,0a5.43,5.43,0,0,0-.06,1,2.26,2.26,0,0,0,.31,1.11,1.35,1.35,0,0,0,1.16.65,2,2,0,0,0,1-.2,3.68,3.68,0,0,0,1.19-.84,5.82,5.82,0,0,0,1.06-1.45.22.22,0,0,1,.17-.14,2.57,2.57,0,0,0,.72-.31,6.64,6.64,0,0,0,.75-.56l.13-.12a.3.3,0,0,1,0,.18,1.59,1.59,0,0,0,.69,1,.82.82,0,0,0,.57.15,1.84,1.84,0,0,0,.61-.21,3.48,3.48,0,0,0,.79-.52,13,13,0,0,0,1.49-1.39s.06-.09.12-.1a2.62,2.62,0,0,0,.09.33,1.53,1.53,0,0,0,.7.84.89.89,0,0,0,.68,0,2.26,2.26,0,0,0,.65-.3,7.35,7.35,0,0,0,1-.75s.08-.08.13-.1h0l.07.08a1.29,1.29,0,0,0,.85.56,1.75,1.75,0,0,0,.85,0,2.85,2.85,0,0,0,1-.53A7,7,0,0,0,41,40.57s.09-.1.14-.17c0,.27.07.53.12.78a.14.14,0,0,1-.08.18,7.38,7.38,0,0,0-.83.67,2.64,2.64,0,0,0-.39.48.74.74,0,0,0-.11.39.34.34,0,0,0,.32.4,1.22,1.22,0,0,0,.43,0,3.71,3.71,0,0,0,1-.33,1.48,1.48,0,0,0,.84-1.14,2.28,2.28,0,0,0,0-.78.2.2,0,0,1,.09-.2l.63-.48a7.36,7.36,0,0,0,.77-.7,1.54,1.54,0,0,0,.38-.71.24.24,0,0,0,0-.12S44.29,38.78,44.27,38.81Zm-6.13,1.26A7.26,7.26,0,0,1,38.57,39a1.21,1.21,0,0,1,.22-.32c.06,0,.13-.12.22-.09a.19.19,0,0,1,.11.21,1.45,1.45,0,0,1-.11.62,1.76,1.76,0,0,1-.45.69,1,1,0,0,1-.49.27A.69.69,0,0,1,38.14,40.07ZM36,37.34a40.75,40.75,0,0,1,1.83-3.76,13.34,13.34,0,0,1,1-1.6,5.84,5.84,0,0,1,.75-.82,1.25,1.25,0,0,1,.3-.21c.12-.05.19,0,.19.12a1.78,1.78,0,0,1-.09.47c-.16.47-.37.92-.57,1.37a23.11,23.11,0,0,1-2.66,4.36c-.46.62-.93,1.23-1.41,1.84,0,0,0,0,0-.06C35.56,38.47,35.79,37.91,36,37.34ZM31.32,39c.15-.41.31-.82.47-1.23a.17.17,0,0,1,.15-.13,2.17,2.17,0,0,0,.6-.22,1,1,0,0,0,.35-.32.15.15,0,0,0,0-.14,2.17,2.17,0,0,1-.9.35s0-.06,0-.09a20.19,20.19,0,0,1,1.4-2.74,6.07,6.07,0,0,1,1.08-1.29,1.51,1.51,0,0,1,.26-.18c.14-.06.21,0,.21.13a1.16,1.16,0,0,1-.07.37,14,14,0,0,1-.7,1.69,24.52,24.52,0,0,1-3.07,4.85l-.23.29s0,0,0-.08C31,39.86,31.17,39.45,31.32,39Zm-16,.76a41.14,41.14,0,0,1,1.79-4,22.75,22.75,0,0,1,1.51-2.57,5.91,5.91,0,0,1,.49-.63l.26-.26.16-.1c.14-.06.22,0,.25.13a1,1,0,0,1,0,.38,5,5,0,0,1-.24.88,19.19,19.19,0,0,1-1.43,3,29.83,29.83,0,0,1-1.91,3A13.5,13.5,0,0,1,15.07,41l-.25.25s0,0,0-.06C15,40.74,15.14,40.27,15.32,39.79Zm14.41.45a7,7,0,0,0-.34,1.63.43.43,0,0,1-.19.34,4.76,4.76,0,0,1-1.05.66,2.1,2.1,0,0,1-.65.18.44.44,0,0,1-.52-.41A2,2,0,0,1,27,42a.15.15,0,0,1,.12-.11,2.08,2.08,0,0,0,.93-.64,2.05,2.05,0,0,0,.44-1.31v0a.49.49,0,0,0-.64-.48,1.26,1.26,0,0,0-.42.16A3.14,3.14,0,0,0,26.12,41a3.67,3.67,0,0,0-.3.92A1.39,1.39,0,0,0,27,43.53l.09,0a.88.88,0,0,1-.1.3,3.82,3.82,0,0,1-1.33,1.57,1.88,1.88,0,0,1-.95.31.61.61,0,0,1-.6-.36,1.41,1.41,0,0,1-.13-.64,5.49,5.49,0,0,1,.11-1.28,16.87,16.87,0,0,1,.47-1.86,9.31,9.31,0,0,1,.5-1.27c.41-.93.86-1.83,1.32-2.72,0-.07.07-.1.15-.09.47.06.94.1,1.41.15a21.58,21.58,0,0,0,2.66.16h0s0,.06,0,.09A21.64,21.64,0,0,0,29.73,40.24Zm-2.61,1.28c0-.16.09-.31.14-.45a5.58,5.58,0,0,1,.34-.85,1.83,1.83,0,0,1,.18-.3l.11-.12a.19.19,0,0,1,.2-.06c.08,0,.09.1.1.17a.89.89,0,0,1,0,.23,1.92,1.92,0,0,1-.59,1.13A1,1,0,0,1,27.12,41.52Zm14.07,1.09a.81.81,0,0,1-.25.27,1.64,1.64,0,0,1-.6.2h-.11a.13.13,0,0,1-.11-.16.33.33,0,0,1,0-.14,1.25,1.25,0,0,1,.4-.51c.23-.17.48-.33.72-.49l0,0A1.42,1.42,0,0,1,41.19,42.61Zm1-4.69a.27.27,0,0,1,.13-.17c.06,0,.1,0,.11.06v.12a2.49,2.49,0,0,1-.29.77A1.86,1.86,0,0,1,42.21,37.92Z"/><path class="cls-2" d="M44.27,38.81l0,0a2.92,2.92,0,0,1-.65.83,6.53,6.53,0,0,1-1.16.85h0c-.07-.45-.15-.9-.21-1.35a.36.36,0,0,1,.06-.23,4,4,0,0,0,.45-.87,1.14,1.14,0,0,0,.1-.45.32.32,0,0,0-.31-.33.68.68,0,0,0-.44.12,1.81,1.81,0,0,0-1,1.49,7.93,7.93,0,0,0,0,1.09.19.19,0,0,1-.06.18c-.26.27-.52.55-.79.81a7,7,0,0,1-1.08.79,1.85,1.85,0,0,1-.69.21.45.45,0,0,1-.53-.36,1,1,0,0,1,0-.17,2.08,2.08,0,0,1,0-.66.16.16,0,0,1,.1-.11,2,2,0,0,0,1.38-1.76,1.07,1.07,0,0,0,0-.4A.47.47,0,0,0,39,38.2a1.16,1.16,0,0,0-.57.18,2.52,2.52,0,0,0-.8.64,3.5,3.5,0,0,0-.74,1.33,1.89,1.89,0,0,0-.07,1,.11.11,0,0,1,0,.1,6.08,6.08,0,0,1-1.06.85,1.5,1.5,0,0,1-.41.18.39.39,0,0,1-.48-.26,1.26,1.26,0,0,1-.08-.43,4.63,4.63,0,0,1,.22-1.52,1.31,1.31,0,0,1,.21-.36,62.44,62.44,0,0,0,3.77-5.19A14,14,0,0,0,40.33,32a3.8,3.8,0,0,0,.22-.8.87.87,0,0,0,0-.36.34.34,0,0,0-.32-.25,1,1,0,0,0-.3,0,2,2,0,0,0-.71.32,6.15,6.15,0,0,0-1,.86,18.26,18.26,0,0,0-2.11,2.83,17.23,17.23,0,0,0-1.5,3A18.91,18.91,0,0,0,34,39.5a8.88,8.88,0,0,0-.28,1.32.8.8,0,0,1-.05.38,2.27,2.27,0,0,1-.26.28,12.5,12.5,0,0,1-1.47,1.44,3.6,3.6,0,0,1-.57.39,1.11,1.11,0,0,1-.34.14.39.39,0,0,1-.47-.26,1,1,0,0,1-.07-.29,3.55,3.55,0,0,1,0-.92c0-.26.1-.51.16-.77a.55.55,0,0,1,.14-.26A36.06,36.06,0,0,0,33.68,37a16.07,16.07,0,0,0,1.5-2.88,3.67,3.67,0,0,0,.23-.8,1.1,1.1,0,0,0,0-.36.37.37,0,0,0-.4-.33.86.86,0,0,0-.27,0,2.45,2.45,0,0,0-.66.29,4.17,4.17,0,0,0-.79.64,8.87,8.87,0,0,0-1.22,1.51,14.92,14.92,0,0,0-1.24,2.2c0,.08-.06.1-.14.1a21.17,21.17,0,0,1-2.41-.19c-.51-.06-1-.14-1.52-.21,0,0-.07,0-.09,0a.36.36,0,0,1,0-.11l.31-.58c.18-.33.37-.65.53-1,0-.07.05-.13.07-.2s0-.11-.11-.08a.64.64,0,0,0-.2.08,7.27,7.27,0,0,1-1,.53.35.35,0,0,0-.2.18c-.2.34-.4.66-.58,1a.16.16,0,0,1-.17.1,5.27,5.27,0,0,0-.79,0,3.44,3.44,0,0,0-1.12.26,1.37,1.37,0,0,0-.59.5.35.35,0,0,0-.06.09.14.14,0,0,0,0,.11s.07,0,.1,0a.66.66,0,0,0,.17-.12,1.71,1.71,0,0,1,.88-.39,5.9,5.9,0,0,1,1.26,0,.28.28,0,0,1,0,.11c-.41.78-.78,1.58-1.12,2.39s-.54,1.44-.75,2.18a1,1,0,0,1-.11.35,3.63,3.63,0,0,1-.93,1.06,1.35,1.35,0,0,1-.31.19c-.17.07-.25,0-.27-.16v-.17a3,3,0,0,1,.06-.32,6.86,6.86,0,0,1,.2-.78,1.4,1.4,0,0,0,.07-.4c0-.18-.07-.26-.25-.27l-.36,0a.56.56,0,0,0-.44.36,2.54,2.54,0,0,0-.19.61,2,2,0,0,1-.52,1,.88.88,0,0,1-.15.12.16.16,0,0,1-.16,0c-.05,0-.05-.1-.05-.14a2.45,2.45,0,0,1,0-.27,4.46,4.46,0,0,1,.26-1A7.84,7.84,0,0,1,21,40.75a2.9,2.9,0,0,1,.4-.54.86.86,0,0,1,.87-.26.51.51,0,0,1,.43.55,1.08,1.08,0,0,1-.15.52c0,.08-.09.17-.12.25a.14.14,0,0,0,0,.16.13.13,0,0,0,.16,0,.61.61,0,0,0,.16-.16,1.45,1.45,0,0,0,.23-.54.85.85,0,0,0-.61-1,1.54,1.54,0,0,0-.95,0,2.69,2.69,0,0,0-.92.55A5,5,0,0,0,19.26,42a3.39,3.39,0,0,1-.68,1,5.06,5.06,0,0,1-.76.64.8.8,0,0,1-.36.17.2.2,0,0,1-.26-.13.69.69,0,0,1,0-.25,6,6,0,0,1,.1-1.11,2.8,2.8,0,0,0,.07-.59.45.45,0,0,0-.31-.44.89.89,0,0,0-1,.12,3,3,0,0,0-.46.48c-.23.3-.42.61-.62.93s-.24.38-.38.56a.82.82,0,0,1-.21.25c-.05,0-.09.06-.14,0s0-.08,0-.13a1,1,0,0,1,0-.3,10.41,10.41,0,0,1,.26-1.07A.52.52,0,0,1,14.6,42c.34-.36.68-.73,1-1.13a39.8,39.8,0,0,0,3.2-4.71,10.91,10.91,0,0,0,1.28-2.9,3,3,0,0,0,.12-.74A.79.79,0,0,0,20,32a.45.45,0,0,0-.49-.17,1.26,1.26,0,0,0-.31.14,3.26,3.26,0,0,0-.55.43,11.82,11.82,0,0,0-1.6,1.86,24.82,24.82,0,0,0-1.69,3.07c-.45,1-.86,2-1.23,3a15.73,15.73,0,0,0-.66,2.15.22.22,0,0,1-.09.12c-.24.19-.49.4-.74.58a10.46,10.46,0,0,1-1.59,1,4.37,4.37,0,0,1-2.24.48,1.51,1.51,0,0,1-1.19-.72,2.34,2.34,0,0,1-.28-.71,4.66,4.66,0,0,1,0-1.58A9.2,9.2,0,0,1,8,39.25a16.54,16.54,0,0,1,2-3.54A10.77,10.77,0,0,1,11.52,34a4.21,4.21,0,0,1,1.09-.72,1.85,1.85,0,0,1,.7-.17.93.93,0,0,1,1,.69,1.77,1.77,0,0,1,0,.2,2.1,2.1,0,0,1,0,.75,4.63,4.63,0,0,1-.47,1.4,13,13,0,0,0-.67,1.47,1.79,1.79,0,0,0-.12.61.43.43,0,0,0,.54.44.78.78,0,0,0,.24-.09,1.93,1.93,0,0,0,.28-.22,2.51,2.51,0,0,0,.38-.48A5.87,5.87,0,0,0,15.38,35a2.58,2.58,0,0,0-.23-1.19,1.69,1.69,0,0,0-1.1-.92,2.64,2.64,0,0,0-1.22,0,4.69,4.69,0,0,0-1.59.65,9.42,9.42,0,0,0-2,1.72A14.24,14.24,0,0,0,6.9,39,11.91,11.91,0,0,0,6,41.87a6.36,6.36,0,0,0-.07,1.38,3.61,3.61,0,0,0,.27,1.21,1.75,1.75,0,0,0,1.44,1.1,4.32,4.32,0,0,0,1.68-.06,7.44,7.44,0,0,0,2.16-.9,12.64,12.64,0,0,0,1.75-1.28.11.11,0,0,1,.11,0,1.14,1.14,0,0,0,0,.26,1.66,1.66,0,0,0,.1.61.51.51,0,0,0,.47.32.67.67,0,0,0,.38-.13,1.88,1.88,0,0,0,.45-.44,6.66,6.66,0,0,0,.52-.85,5.68,5.68,0,0,1,.79-1.1.69.69,0,0,1,.18-.16s0-.05.07,0,0,0,0,.08,0,0,0,.05A5.46,5.46,0,0,0,16,43.15a1.9,1.9,0,0,0,.06.63.69.69,0,0,0,.26.3,1.16,1.16,0,0,0,.55.15,2,2,0,0,0,1-.28,4.51,4.51,0,0,0,1-.84s0-.08.09-.07a1.26,1.26,0,0,0,0,.61.6.6,0,0,0,.44.42A.88.88,0,0,0,20.1,44a1.43,1.43,0,0,0,.51-.43s.05-.08.09-.09,0,0,0,0,0,0,0,0a1,1,0,0,0,.84.55,1.06,1.06,0,0,0,.79-.22,2.6,2.6,0,0,0,.52-.47s0-.06.08,0a5.43,5.43,0,0,0-.06,1,2.26,2.26,0,0,0,.31,1.11,1.35,1.35,0,0,0,1.16.65,2,2,0,0,0,1-.2,3.68,3.68,0,0,0,1.19-.84,5.82,5.82,0,0,0,1.06-1.45.22.22,0,0,1,.17-.14,2.57,2.57,0,0,0,.72-.31,6.64,6.64,0,0,0,.75-.56l.13-.12a.3.3,0,0,1,0,.18,1.59,1.59,0,0,0,.69,1,.82.82,0,0,0,.57.15,1.84,1.84,0,0,0,.61-.21,3.48,3.48,0,0,0,.79-.52,13,13,0,0,0,1.49-1.39s.06-.09.12-.1a2.62,2.62,0,0,0,.09.33,1.53,1.53,0,0,0,.7.84.89.89,0,0,0,.68,0,2.26,2.26,0,0,0,.65-.3,7.35,7.35,0,0,0,1-.75s.08-.08.13-.1h0l.07.08a1.29,1.29,0,0,0,.85.56,1.75,1.75,0,0,0,.85,0,2.85,2.85,0,0,0,1-.53A7,7,0,0,0,41,40.57s.09-.1.14-.17c0,.27.07.53.12.78a.14.14,0,0,1-.08.18,7.38,7.38,0,0,0-.83.67,2.64,2.64,0,0,0-.39.48.74.74,0,0,0-.11.39.34.34,0,0,0,.32.4,1.22,1.22,0,0,0,.43,0,3.71,3.71,0,0,0,1-.33,1.48,1.48,0,0,0,.84-1.14,2.28,2.28,0,0,0,0-.78.2.2,0,0,1,.09-.2l.63-.48a7.36,7.36,0,0,0,.77-.7,1.54,1.54,0,0,0,.38-.71.24.24,0,0,0,0-.12S44.29,38.78,44.27,38.81Zm-6.13,1.26A7.26,7.26,0,0,1,38.57,39a1.21,1.21,0,0,1,.22-.32c.06,0,.13-.12.22-.09a.19.19,0,0,1,.11.21,1.45,1.45,0,0,1-.11.62,1.76,1.76,0,0,1-.45.69,1,1,0,0,1-.49.27A.69.69,0,0,1,38.14,40.07ZM36,37.34a40.75,40.75,0,0,1,1.83-3.76,13.34,13.34,0,0,1,1-1.6,5.84,5.84,0,0,1,.75-.82,1.25,1.25,0,0,1,.3-.21c.12-.05.19,0,.19.12a1.78,1.78,0,0,1-.09.47c-.16.47-.37.92-.57,1.37a23.11,23.11,0,0,1-2.66,4.36c-.46.62-.93,1.23-1.41,1.84,0,0,0,0,0-.06C35.56,38.47,35.79,37.91,36,37.34ZM31.32,39c.15-.41.31-.82.47-1.23a.17.17,0,0,1,.15-.13,2.17,2.17,0,0,0,.6-.22,1,1,0,0,0,.35-.32.15.15,0,0,0,0-.14,2.17,2.17,0,0,1-.9.35s0-.06,0-.09a20.19,20.19,0,0,1,1.4-2.74,6.07,6.07,0,0,1,1.08-1.29,1.51,1.51,0,0,1,.26-.18c.14-.06.21,0,.21.13a1.16,1.16,0,0,1-.07.37,14,14,0,0,1-.7,1.69,24.52,24.52,0,0,1-3.07,4.85l-.23.29s0,0,0-.08C31,39.86,31.17,39.45,31.32,39Zm-16,.76a41.14,41.14,0,0,1,1.79-4,22.75,22.75,0,0,1,1.51-2.57,5.91,5.91,0,0,1,.49-.63l.26-.26.16-.1c.14-.06.22,0,.25.13a1,1,0,0,1,0,.38,5,5,0,0,1-.24.88,19.19,19.19,0,0,1-1.43,3,29.83,29.83,0,0,1-1.91,3A13.5,13.5,0,0,1,15.07,41l-.25.25s0,0,0-.06C15,40.74,15.14,40.27,15.32,39.79Zm14.41.45a7,7,0,0,0-.34,1.63.43.43,0,0,1-.19.34,4.76,4.76,0,0,1-1.05.66,2.1,2.1,0,0,1-.65.18.44.44,0,0,1-.52-.41A2,2,0,0,1,27,42a.15.15,0,0,1,.12-.11,2.08,2.08,0,0,0,.93-.64,2.05,2.05,0,0,0,.44-1.31v0a.49.49,0,0,0-.64-.48,1.26,1.26,0,0,0-.42.16A3.14,3.14,0,0,0,26.12,41a3.67,3.67,0,0,0-.3.92A1.39,1.39,0,0,0,27,43.53l.09,0a.88.88,0,0,1-.1.3,3.82,3.82,0,0,1-1.33,1.57,1.88,1.88,0,0,1-.95.31.61.61,0,0,1-.6-.36,1.41,1.41,0,0,1-.13-.64,5.49,5.49,0,0,1,.11-1.28,16.87,16.87,0,0,1,.47-1.86,9.31,9.31,0,0,1,.5-1.27c.41-.93.86-1.83,1.32-2.72,0-.07.07-.1.15-.09.47.06.94.1,1.41.15a21.58,21.58,0,0,0,2.66.16h0s0,.06,0,.09A21.64,21.64,0,0,0,29.73,40.24Zm-2.61,1.28c0-.16.09-.31.14-.45a5.58,5.58,0,0,1,.34-.85,1.83,1.83,0,0,1,.18-.3l.11-.12a.19.19,0,0,1,.2-.06c.08,0,.09.1.1.17a.89.89,0,0,1,0,.23,1.92,1.92,0,0,1-.59,1.13A1,1,0,0,1,27.12,41.52Zm14.07,1.09a.81.81,0,0,1-.25.27,1.64,1.64,0,0,1-.6.2h-.11a.13.13,0,0,1-.11-.16.33.33,0,0,1,0-.14,1.25,1.25,0,0,1,.4-.51c.23-.17.48-.33.72-.49l0,0A1.42,1.42,0,0,1,41.19,42.61Zm1-4.69a.27.27,0,0,1,.13-.17c.06,0,.1,0,.11.06v.12a2.49,2.49,0,0,1-.29.77A1.86,1.86,0,0,1,42.21,37.92Z"/><path class="cls-3" d="M25.21,49.4a.54.54,0,0,0,.09-1c-.14-.05-.28-.06-.43-.1s-.18,0-.2.15c-.09.5-.18,1-.26,1.49,0,.18,0,.18.14.2s.08,0,.09-.06.07-.38.11-.57c0,0,0-.1,0-.1s.06.06.08.09c.1.23.21.45.32.69,0,0,0,.07.08.08l.28,0c-.16-.29-.3-.57-.43-.87Zm-.38-.21s-.06,0,0-.07l.09-.56a.06.06,0,0,1,.08-.05H25a.57.57,0,0,1,.25.11.28.28,0,0,1,.12.33.28.28,0,0,1-.24.24A.92.92,0,0,1,24.83,49.19Z"/><path class="cls-2" d="M22.93,47.83c-.42.61-.82,1.2-1.23,1.78l.22,0a.08.08,0,0,0,.1,0l.21-.29a.09.09,0,0,1,.11-.06l.66.13c.05,0,.07,0,.1.08a3.59,3.59,0,0,0,.08.35s0,.07.06.08l.24,0C23.3,49.23,23.12,48.54,22.93,47.83Zm-.56,1.23c.15-.24.3-.47.47-.72.08.29.14.55.21.84Z"/><path class="cls-4" d="M28.39,49.2a.19.19,0,0,0-.07.3.45.45,0,0,0,.16.12,1.71,1.71,0,0,1,.27.2.53.53,0,0,1,.13.73.61.61,0,0,1-.72.25.59.59,0,0,1-.39-.54c0-.06,0-.09.08-.08H28a.26.26,0,0,1,0,.12.33.33,0,0,0,.65-.08A.21.21,0,0,0,28.6,50a.92.92,0,0,0-.21-.17.9.9,0,0,1-.27-.21.44.44,0,0,1,0-.6.58.58,0,0,1,.93.16c0,.05,0,.09,0,.1l-.07,0c-.06,0-.1,0-.14,0A.3.3,0,0,0,28.39,49.2Z"/><path class="cls-5" d="M21.05,47.64a1.79,1.79,0,0,0-.51-.11c-.09,0-.09,0-.11.07,0,.26-.09.54-.15.81s-.09.52-.13.79,0,.13.13.17h0c.09,0,.09,0,.11-.07l.09-.55c0-.11,0-.12.14-.1a1,1,0,0,0,.3,0,.5.5,0,0,0,.44-.48A.45.45,0,0,0,21.05,47.64Zm-.07.79a.72.72,0,0,1-.41,0s0,0,0-.07.07-.36.1-.54,0-.07.08-.06h.07a.77.77,0,0,1,.27.11.26.26,0,0,1,.11.28A.28.28,0,0,1,21,48.43Z"/><path class="cls-6" d="M27,48.82c-.08.52-.18,1-.27,1.56,0,.13,0,.13-.14.1s-.14,0-.11-.18l.14-.78c0-.27.09-.54.13-.81,0-.09,0-.09.11-.08S27,48.64,27,48.82Z"/><path class="cls-1" d="M14.82,41.28c-.05,0,0,0,0-.06S14.8,41.27,14.82,41.28Z"/><path class="cls-1" d="M35.37,39.11c-.06,0,0,0,0-.06S35.35,39.09,35.37,39.11Z"/><path class="cls-1" d="M30.91,40.37c-.06,0,0,0,0-.08S30.89,40.35,30.91,40.37Z"/><path class="cls-7" d="M35.37,39.11l0,0,0,0a.1.1,0,0,1,0-.08.08.08,0,0,1,0,0S35.35,39.09,35.37,39.11Z"/><path class="cls-8" d="M30.91,40.37s0,0,0,0,0,0,0,0a.16.16,0,0,1,0-.07S30.89,40.35,30.91,40.37Z"/><path class="cls-9" d="M14.82,41.28s0,0-.05,0v0l0-.05S14.8,41.27,14.82,41.28Z"/></g></g></svg>