<svg xmlns="http://www.w3.org/2000/svg" viewBox="0 0 121.49 43.69"><g id="Calque_2" data-name="Calque 2"><g id="Calque_1-2" data-name="Calque 1"><path d="M120.75,32.69c-1.17-2-3.57-3.51-7.12-4.33-8.7-2-22.59-9.72-39.08-21.69C73.1,5.47,65.65-.49,62.19,0a2.29,2.29,0,0,0-1.61,1c-2.28,3.5-.23,9,5,13.59A63.51,63.51,0,0,0,55.47,16c-6.28,1.36-14.94,4.35-20.86,10.8H15.3c-8.11,0-11.83,1.29-13.23,2L2,28.68l-.61.48A3.81,3.81,0,0,0,.05,31.35,2.76,2.76,0,0,0,.53,33.5,2.51,2.51,0,0,0,1,34v4.88a1.11,1.11,0,0,0,.31.87C2.45,41,9.09,41.8,21,42l10.77.31v-.7a7.28,7.28,0,0,1,3.49-1.9l.76-.19v-2.1c10.65,1.06,19.83,2.35,27.4,3.85a147.12,147.12,0,0,0,27.45,2.42c13.59,0,25.74-1.68,29.28-4.76a3.06,3.06,0,0,0,1.2-2.29A5.56,5.56,0,0,0,120.75,32.69ZM67.45,16.56a.82.82,0,0,1,.11.56c-.45,1.71-7.36,2.91-11.48,3.63l-.58.1a64.3,64.3,0,0,0-17.4,5.32C48.22,17.33,64.38,16.62,67.45,16.56ZM33.61,28.79c-.52.36-1,.72-1.51,1.09-2.66,0-19.75,0-24.11,0a25.87,25.87,0,0,1-2.73-.11,41.48,41.48,0,0,1,10-1ZM2.17,32.36A.74.74,0,0,1,2,31.72a2,2,0,0,1,.21-.54A16.53,16.53,0,0,0,8,31.89c3.51,0,15.29,0,21.11,0-2.07,1.25-4.39,2.42-5.63,2.45-8.37-.63-14.92-.95-17.78-1.08l-.87,0C3,33.11,2.38,32.63,2.17,32.36ZM21.07,40C7.41,39.77,3.85,38.83,3,38.48V35a9.2,9.2,0,0,0,1.77.25l.87,0c3,.15,9.9.48,18.72,1.16l5.46.44v3.41Zm13-2a10.71,10.71,0,0,0-2.25,1V37l2.25.21Zm85.38-1.77-.06.18v.18c0,.25-.16.53-.52.84-4.94,4.3-34.24,6-55,1.89A328.43,328.43,0,0,0,28.22,34.7a44.05,44.05,0,0,0,4.85-3c5.2-4.15,12.86-7.12,22.77-8.85l.58-.1c7.43-1.3,12.35-2.35,13.07-5.09.51-1.92-1.39-3.48-2-4C62.1,9.2,60.77,4.4,62.26,2.12c0,0,.06-.08.24-.11,1.87-.28,7.44,3.45,10.83,6.24,17,12.34,30.77,20,39.85,22.06,2.92.68,4.93,1.83,5.81,3.33A3.52,3.52,0,0,1,119.42,36.22Z"/></g></g></svg>