<svg xmlns="http://www.w3.org/2000/svg" viewBox="0 0 123.11 41.62"><g id="Calque_2" data-name="Calque 2"><g id="Calque_1-2" data-name="Calque 1"><path d="M104.51,22.31c-1.56-.44-2.91-.82-3.87-1.15a114.46,114.46,0,0,1-11.33-5.52c-9.17-4.8-12-6.13-13.24-5.71a1.21,1.21,0,0,0-.72.66c-.56,1.26-.59,4,.48,7.05C60.14,15.49,17.46,3.93,12.15,1.46,9.06,0,6.78-.36,5.35.33a2.69,2.69,0,0,0-.53.34L4.61.56l-.35.79a1.33,1.33,0,0,0-.1.23c-7.82,17.87-2.4,29.31-1.4,31.16v6.55l.73.21c.3.08,6.07,1.67,16.71,1.67,2.54,0,5.35-.09,8.44-.31l.92-.07v-.46a14.86,14.86,0,0,1,7.82-3l1,0V35.66c4.5.48,9,1.12,13.46,1.76l4,.57c9.54,1.36,25.49,3.62,34.4,3.62h4.33c13.55,0,27.36-.76,28.5-7.14C124.21,27.86,112.36,24.52,104.51,22.31ZM76.77,19.77a15.47,15.47,0,0,0,2.32,3.34c1.31,1.46,1.23,2,1.23,2a2.58,2.58,0,0,1-1.61.29C46.71,21.18,15.19,6,7.4,2a12.61,12.61,0,0,1,3.9,1.25C17.74,6.27,62.42,18.1,76.77,19.77Zm-72,18V33.59c3.25.34,13,1.3,20.9,1.3l1.9,0v4C15,39.74,7.11,38.27,4.76,37.75Zm24.8.11V35c2.19.09,4.41.25,6.63.46A17.1,17.1,0,0,0,29.56,37.86Zm91.5-3.73c-1,5.62-20.37,5.52-28.64,5.48H90.2c-8.77,0-24.64-2.25-34.12-3.6l-4-.57c-8.74-1.25-17.77-2.55-26.42-2.55-8.34,0-18.82-1.08-21.26-1.35a24.18,24.18,0,0,1-2.11-7.48c-.58-4.5-.46-11.68,3.29-20.72,6,3.12,39.17,19.6,72.92,24.05.47,0,2.85.16,3.61-1.39s-1-3.59-1.54-4.23A13.31,13.31,0,0,1,77,11.93c1.82.5,7.26,3.35,11.34,5.48A114.13,114.13,0,0,0,100,23.05c1,.35,2.39.74,4,1.19C110.25,26,121.93,29.29,121.06,34.13Z"/></g></g></svg>