<svg xmlns="http://www.w3.org/2000/svg" viewBox="0 0 128.35 42.16"><g id="Calque_2" data-name="Calque 2"><g id="Calque_1-2" data-name="Calque 1"><path d="M126.57,21.31c-2.5-3.94-7.63-6.49-15.23-7.57C90.7,10.81,69.05.44,68.84.34a2.52,2.52,0,0,0-2.6,0c-1.23.82-1.72,2.75-1.5,5.9.09,1.31,1.17,2.57,3,3.83L66,12.79c-4.22-.49-29.19-3.53-42.53-8.51C11.18-.32,6.72.21,5.29.72L4.84.58l-.38.76C-.71,11.68.93,24.39,1.23,26.37.86,27.54-.62,32.63.29,36.21c.15.59.23,1.07.3,1.5.48,3,1.21,3,8.2,2.89,6.1-.07,17.46-.21,39.2,1,6.9.38,13.36.55,19.38.55,38.5,0,58.85-6.83,59.08-6.91l.48-.16.18-.59C127.94,31.8,129.67,26.2,126.57,21.31ZM79.66,16c1.83.77,4,1.68,5.18,2.31-2.27.56-8.48.71-19.15-1.14l3.69-6A92.22,92.22,0,0,0,79.66,16Zm-16.09.78c-5.1-1-11.13-2.35-18.13-4.34l-7.61-2.17c11.15,2.39,22.9,3.9,27.05,4.4ZM19.35,4.93,14.08,3.37C15.57,3.75,17.32,4.25,19.35,4.93ZM5.88,3c3.13,1,15.3,4.64,39,11.36,24,6.81,41.39,7.8,42.58,4.47.53-1.49-1.37-2.29-7-4.67-4.73-2-13.53-5.7-13.69-8-.24-3.43.52-4,.61-4.1s.41,0,.6.09,21.81,10.56,43.1,13.59c6.8,1,11.38,3.11,13.63,6.37C121.8,25,98.56,27.41,82.86,27.78c-8.72.19-71.71-2-79.73-2.3C2.76,22.51,1.82,11.82,5.88,3ZM125.32,33.51c-3.81,1.18-30.3,8.72-77.22,6.1-15.86-.89-26.21-1.06-33-1.06-2.56,0-4.62,0-6.3.05A30.36,30.36,0,0,1,3,38.44c-.28-.08-.28-.08-.44-1-.07-.44-.16-1-.33-1.67-.68-2.69.3-6.65.76-8.24,7.75.27,65.46,2.31,78.39,2.31l1.53,0c.38,0,35.43-1,42.69-6C127.06,27.35,126,31.28,125.32,33.51Z"/></g></g></svg>