<svg xmlns="http://www.w3.org/2000/svg" viewBox="0 0 122.47 42.19"><g id="Calque_2" data-name="Calque 2"><g id="Calque_1-2" data-name="Calque 1"><path d="M114.16,23.76c-.49-.73-2-1.8-9.11-2.64C98.22,20.32,78,9.75,69.3,5.24c-2.85-1.49-4.13-2.15-4.55-2.31a1.62,1.62,0,0,0-1.58.24c-1.74,1.31-2.12,6.88-2,10.3C52.85,11.39,9.75.58,7.36.12,6.79,0,5.29-.27,4.65.73a1.56,1.56,0,0,0-.09,1.39C-4.23,20.73,2.18,32.76,3.35,34.69L3.47,40l.37.29c.61.48,2.39,1.87,14.34,1.87h1.91c6.61-.07,12.85-.51,12.92-.51l.93-.07V38.81l3-1.2v-.79a154.71,154.71,0,0,1,21.19,2c8.4,1.19,17.71,2.5,28.06,2.5,2.23,0,4.51-.06,6.85-.2,24.77-1.45,29.47-4.5,29.47-9.62C122.47,27.18,116,24.46,114.16,23.76ZM64.26,4.9C64.87,5.19,66.51,6,68.38,7c9.49,5,29.24,15.25,36.44,16.1,4.57.54,6.46,1.15,7.22,1.5-4.4,4.06-25.09.82-37.73-2.34-4.2-1.45-10.92-4.76-11.12-7.58C62.87,10.35,63.59,5.85,64.26,4.9ZM69.1,22.27c-3.91-.5-10.87-2.1-22.81-6.62C32.66,10.5,19.93,6,12.56,3.42c13,3.18,44,11,48.77,12.16C62.1,18.36,65.89,20.72,69.1,22.27ZM5.45,39l-.07-3.32c3.22.69,12.37,2.22,26.56,1.31v2.77C22.82,40.33,8.72,40.59,5.45,39Zm87.43.17c-12.94.75-23.9-.79-34.51-2.29-7.48-1-14.61-2.06-21.63-2.06-1.5,0-3,0-4.48.15C16.65,36,7,34,5,33.52a23.72,23.72,0,0,1-2.62-8.08C1.64,20.64,1.74,13,6.2,3.33,10.1,4.67,27,10.5,45.58,17.52c20.25,7.66,26.81,7.15,28.47,6.74,4.55,1.13,33.63,8,39.69,1.48,2.36.93,6.73,3.2,6.73,5.78C120.47,34.42,118.34,37.65,92.88,39.15Z"/></g></g></svg>