<svg xmlns="http://www.w3.org/2000/svg" viewBox="0 0 127.9 38.35"><g id="Calque_2" data-name="Calque 2"><g id="Calque_1-2" data-name="Calque 1"><path d="M127.41,27.07c-1-2-3.64-3.61-7.7-4.67C110.65,20,92.15,11.5,85.09,7.66c-6.86-3.74-8.13-3.23-8.61-3a1.18,1.18,0,0,0-.71.69c-1.19,3.22,1.32,6.47,3.53,9.34l.11.15c-9.93-1.64-49.87-10.12-60.79-13C9.21-.65,4.82,0,3.58.31L2.87.06l-.29,1C-3.31,22,2.48,28.67,4.32,30.17v6.65l.83.14a131.73,131.73,0,0,0,19,1.39c3.1,0,6.36-.13,9.61-.44l.9-.09V35l2.65-1.44V32.23c7.44.11,14.65.49,19.79,1.7s15.52,1.79,26.78,1.79c18.29,0,38.88-1.54,42.94-4.43a2.22,2.22,0,0,0,1-1.4A3.89,3.89,0,0,0,127.41,27.07ZM81,17a6.05,6.05,0,0,1,.73,1.43c-2.8.58-17-2.62-26.5-4.77-6.59-1.48-12.82-2.89-16.88-3.55C29.83,8.77,16.16,4.48,8.86,2.08a52,52,0,0,1,9.25,1.68C27.68,6.27,74.49,16.37,81,17ZM6.32,35.11V31.19c3.34,1,10.19,1,20.22,1h6.09V36A125.82,125.82,0,0,1,6.32,35.11Zm29-2.72-.65.35V32.2h.65Zm90.59-3.07,0,.15c-.68,1.15-9.26,3.25-29.38,4.05-16.62.65-32.27,0-38.93-1.54S40.63,30.19,31,30.19H26.54c-9.21,0-18.74.06-20.63-1.34l-.09-.06c-.08,0-7.36-4.73-1.59-26.16,4.52,1.54,23.1,7.75,33.83,9.49,4,.65,10.2,2,16.76,3.53,18.06,4.07,26.76,5.81,28.54,4.24a1.44,1.44,0,0,0,.48-1.23c-.16-1.6-1.46-3.28-3-5.23-1.74-2.26-3.69-4.79-3.36-6.92.67.11,2.45.63,6.62,2.9C91.27,13.3,110,21.91,119.2,24.33c4.27,1.12,5.84,2.57,6.4,3.58A2,2,0,0,1,125.87,29.32Z"/></g></g></svg>