<svg xmlns="http://www.w3.org/2000/svg" viewBox="0 0 127.11 38.03"><g id="Calque_2" data-name="Calque 2"><g id="Calque_1-2" data-name="Calque 1"><path d="M126.78,25.61a3.22,3.22,0,0,0-.09-2.05c-2-5.47-18.25-12.75-33.32-19.14C90.2,3.07,87.7,2,86.94,1.57,84.63.21,83.18-.22,82.26.2a1.3,1.3,0,0,0-.78.93l-.06.26a3.75,3.75,0,0,1-1.58,2.5C77.08,5.94,69.48,7.58,48.9,3.82,37.85,1.81,9,.19,6.51.06a2,2,0,0,0-1.3.12,3.33,3.33,0,0,0-1.54,1.7h0l-.31.9h0C-2.62,20.11,1,27.28,2.12,28.93c-.08,1-.13,3.43,1,5V37.4l.91.09c.1,0,5.86.54,14.64.54a203.63,203.63,0,0,0,23.5-1.32l.89-.1v-3c2.93-.25,11.83-.55,30.49,2a123.88,123.88,0,0,0,16.81,1.11c17.75,0,33-3.5,36.2-6.44l.24-.22.06-.32A8.24,8.24,0,0,0,126.78,25.61ZM86.43,7.91a7.37,7.37,0,0,1-1.37,5.46c-1.28,1.88-6.46,1.92-9.52,1.5C57,14,36.66,10,22.52,6.73l10.4,1c2.71.26,6.27.7,10.4,1.2,9.27,1.14,20.31,2.5,27.5,2.5A27.1,27.1,0,0,0,76,11c.22,0,5.57-.88,7.46-4.36A5.31,5.31,0,0,0,84.12,4,7.68,7.68,0,0,1,86.43,7.91ZM6,2l.25,0c.31,0,31.09,1.7,42.26,3.74A118.77,118.77,0,0,0,69.1,8.09c5.65,0,9.6-.86,11.93-2.59a6.53,6.53,0,0,0,1-1,3.2,3.2,0,0,1-.37,1.17c-1.42,2.61-6,3.34-6.06,3.35-5.51,1.14-20.87-.74-32.09-2.12C39.42,6.42,35.85,6,33.11,5.72,18.42,4.34,10.24,3.53,9.23,3.42c-1.57-.41-2.8-.75-3.6-1C5.81,2.15,6,2,6,2ZM4.91,4.32C11,6,45.47,15.41,75.35,16.86c.91.13,9,1.15,11.36-2.37a9.28,9.28,0,0,0,1.69-7,9.12,9.12,0,0,0-1.9-3.94c1.14.57,3.29,1.48,6.09,2.67,9.85,4.18,30.36,12.88,32.22,18a1.29,1.29,0,0,1,.08.74c-1.81,1-14,7.16-46.46,4.88-19-1.34-26.57-1.79-31.46-1.79-2.88,0-4.83.15-7.63.38-1.52.12-3.3.26-5.61.41-13.46.86-27.86-.26-29.92-1C3.14,26.86-.45,20.53,4.91,4.32Zm.24,31.25v-.91c3,.33,12.22.84,35.94-.88v1A204.52,204.52,0,0,1,5.15,35.57ZM125,29c-4.13,3.09-27.16,7.94-51.15,4.63-23.19-3.19-31.4-2-32.22-1.88-26.8,2-35.33,1.08-36.95.84a5.15,5.15,0,0,1-.59-2.64c4.62.94,18.16,1.66,29.77.92,2.32-.15,4.11-.3,5.64-.42,7.43-.59,8.77-.7,38.79,1.41,5.16.36,9.82.52,14,.52,20.32,0,29.72-3.67,32.79-5.22A9.38,9.38,0,0,1,125,29Z"/></g></g></svg>