<svg xmlns="http://www.w3.org/2000/svg" viewBox="0 0 57.17 51.59"><defs><style>.cls-1{fill:#1c31a0;}</style></defs><g id="Calque_2" data-name="Calque 2"><g id="Calque_1-2" data-name="Calque 1"><path class="cls-1" d="M28.69,51.59l-2.25-1.43C25.36,49.48,0,33.19,0,16.52A16.54,16.54,0,0,1,16.52,0,16.19,16.19,0,0,1,28.6,5.3,16.47,16.47,0,0,1,57.17,16.52c0,14.73-23.6,31.66-26.29,33.54ZM16.52,2A14.54,14.54,0,0,0,2,16.52c0,15.58,24.47,31.29,25.51,32l1.13.72,1.09-.76c2.6-1.83,25.44-18.19,25.44-31.91A14.47,14.47,0,0,0,29.38,7.46l-.79,1-.78-1A14.23,14.23,0,0,0,16.52,2Z"/></g></g></svg>